<mxfile host="65bd71144e" modified="2020-12-28T20:42:08.436Z" agent="5.0 (Windows NT 10.0; Win64; x64) AppleWebKit/537.36 (KHTML, like Gecko) Code/1.52.1 Chrome/83.0.4103.122 Electron/9.3.5 Safari/537.36" etag="e7kfqYF_fkyU4O5iBspa" version="13.10.0" type="embed">
    <diagram id="fJSnS00RBcujVn7AnnP6" name="Page-1">
        <mxGraphModel dx="651" dy="329" grid="1" gridSize="10" guides="1" tooltips="1" connect="1" arrows="1" fold="1" page="1" pageScale="1" pageWidth="827" pageHeight="1169" math="0" shadow="0">
            <root>
                <mxCell id="0"/>
                <mxCell id="1" parent="0"/>
                <mxCell id="2" value="" style="rounded=0;whiteSpace=wrap;html=1;" parent="1" vertex="1">
                    <mxGeometry x="120" y="80" width="120" height="160" as="geometry"/>
                </mxCell>
                <mxCell id="3" value="" style="rounded=0;whiteSpace=wrap;html=1;" parent="1" vertex="1">
                    <mxGeometry x="600" y="320" width="120" height="160" as="geometry"/>
                </mxCell>
                <mxCell id="4" value="" style="rounded=0;whiteSpace=wrap;html=1;" parent="1" vertex="1">
                    <mxGeometry x="440" y="560" width="120" height="160" as="geometry"/>
                </mxCell>
                <mxCell id="5" value="" style="rounded=0;whiteSpace=wrap;html=1;" parent="1" vertex="1">
                    <mxGeometry x="280" y="80" width="120" height="160" as="geometry"/>
                </mxCell>
                <mxCell id="6" value="" style="rounded=0;whiteSpace=wrap;html=1;" parent="1" vertex="1">
                    <mxGeometry x="440" y="80" width="120" height="160" as="geometry"/>
                </mxCell>
                <mxCell id="21" value="" style="rounded=0;whiteSpace=wrap;html=1;" parent="1" vertex="1">
                    <mxGeometry x="280" y="320" width="120" height="160" as="geometry"/>
                </mxCell>
                <mxCell id="22" value="" style="rounded=0;whiteSpace=wrap;html=1;" parent="1" vertex="1">
                    <mxGeometry x="440" y="320" width="120" height="160" as="geometry"/>
                </mxCell>
                <mxCell id="23" value="" style="rounded=0;whiteSpace=wrap;html=1;" parent="1" vertex="1">
                    <mxGeometry x="120" y="320" width="120" height="160" as="geometry"/>
                </mxCell>
                <mxCell id="43" value="" style="rounded=0;whiteSpace=wrap;html=1;" parent="1" vertex="1">
                    <mxGeometry x="600" y="80" width="120" height="160" as="geometry"/>
                </mxCell>
                <mxCell id="46" value="" style="rounded=0;whiteSpace=wrap;html=1;" parent="1" vertex="1">
                    <mxGeometry x="360" y="840" width="120" height="160" as="geometry"/>
                </mxCell>
                <mxCell id="47" value="" style="rounded=0;whiteSpace=wrap;html=1;" parent="1" vertex="1">
                    <mxGeometry x="520" y="840" width="120" height="160" as="geometry"/>
                </mxCell>
                <mxCell id="48" value="" style="rounded=0;whiteSpace=wrap;html=1;" parent="1" vertex="1">
                    <mxGeometry x="680" y="840" width="120" height="160" as="geometry"/>
                </mxCell>
                <mxCell id="49" value="" style="rounded=0;whiteSpace=wrap;html=1;" parent="1" vertex="1">
                    <mxGeometry x="280" y="560" width="120" height="160" as="geometry"/>
                </mxCell>
                <mxCell id="51" value="" style="rounded=0;whiteSpace=wrap;html=1;" parent="1" vertex="1">
                    <mxGeometry x="200" y="1080" width="120" height="160" as="geometry"/>
                </mxCell>
                <mxCell id="52" value="" style="rounded=0;whiteSpace=wrap;html=1;" parent="1" vertex="1">
                    <mxGeometry x="360" y="1080" width="120" height="160" as="geometry"/>
                </mxCell>
                <mxCell id="53" value="" style="rounded=0;whiteSpace=wrap;html=1;" parent="1" vertex="1">
                    <mxGeometry x="520" y="1080" width="120" height="160" as="geometry"/>
                </mxCell>
                <mxCell id="54" value="" style="rounded=0;whiteSpace=wrap;html=1;" parent="1" vertex="1">
                    <mxGeometry x="680" y="1080" width="120" height="160" as="geometry"/>
                </mxCell>
                <mxCell id="69" value="" style="rounded=0;whiteSpace=wrap;html=1;" parent="1" vertex="1">
                    <mxGeometry x="120" y="560" width="120" height="190" as="geometry"/>
                </mxCell>
                <mxCell id="134" value="For logged-in users only" style="text;html=1;strokeColor=none;fillColor=none;align=center;verticalAlign=middle;whiteSpace=wrap;rounded=0;" parent="1" vertex="1">
                    <mxGeometry x="270" y="240" width="140" height="20" as="geometry"/>
                </mxCell>
                <mxCell id="140" value="" style="rounded=0;whiteSpace=wrap;html=1;" vertex="1" parent="1">
                    <mxGeometry x="40" y="840" width="120" height="160" as="geometry"/>
                </mxCell>
                <mxCell id="141" value="" style="rounded=0;whiteSpace=wrap;html=1;" vertex="1" parent="1">
                    <mxGeometry x="200" y="840" width="120" height="160" as="geometry"/>
                </mxCell>
                <mxCell id="142" value="" style="rounded=0;whiteSpace=wrap;html=1;" vertex="1" parent="1">
                    <mxGeometry x="40" y="1080" width="120" height="160" as="geometry"/>
                </mxCell>
                <mxCell id="143" value="Event List" style="text;html=1;strokeColor=none;fillColor=none;align=center;verticalAlign=middle;whiteSpace=wrap;rounded=0;" vertex="1" parent="1">
                    <mxGeometry x="120" y="50" width="120" height="20" as="geometry"/>
                </mxCell>
                <mxCell id="144" value="Team List" style="text;html=1;strokeColor=none;fillColor=none;align=center;verticalAlign=middle;whiteSpace=wrap;rounded=0;" vertex="1" parent="1">
                    <mxGeometry x="280" y="50" width="120" height="20" as="geometry"/>
                </mxCell>
                <mxCell id="145" value="Location List" style="text;html=1;strokeColor=none;fillColor=none;align=center;verticalAlign=middle;whiteSpace=wrap;rounded=0;" vertex="1" parent="1">
                    <mxGeometry x="440" y="50" width="120" height="20" as="geometry"/>
                </mxCell>
                <mxCell id="146" value="Persons List" style="text;html=1;strokeColor=none;fillColor=none;align=center;verticalAlign=middle;whiteSpace=wrap;rounded=0;" vertex="1" parent="1">
                    <mxGeometry x="600" y="50" width="120" height="20" as="geometry"/>
                </mxCell>
                <mxCell id="147" value="For logged-in users only" style="text;html=1;strokeColor=none;fillColor=none;align=center;verticalAlign=middle;whiteSpace=wrap;rounded=0;" vertex="1" parent="1">
                    <mxGeometry x="430" y="240" width="140" height="20" as="geometry"/>
                </mxCell>
                <mxCell id="148" value="For logged-in users only" style="text;html=1;strokeColor=none;fillColor=none;align=center;verticalAlign=middle;whiteSpace=wrap;rounded=0;" vertex="1" parent="1">
                    <mxGeometry x="590" y="240" width="140" height="20" as="geometry"/>
                </mxCell>
                <mxCell id="149" value="Event Details" style="text;html=1;strokeColor=none;fillColor=none;align=center;verticalAlign=middle;whiteSpace=wrap;rounded=0;" vertex="1" parent="1">
                    <mxGeometry x="120" y="290" width="120" height="20" as="geometry"/>
                </mxCell>
                <mxCell id="150" value="Team Details" style="text;html=1;strokeColor=none;fillColor=none;align=center;verticalAlign=middle;whiteSpace=wrap;rounded=0;" vertex="1" parent="1">
                    <mxGeometry x="280" y="290" width="120" height="20" as="geometry"/>
                </mxCell>
                <mxCell id="151" value="Location Details" style="text;html=1;strokeColor=none;fillColor=none;align=center;verticalAlign=middle;whiteSpace=wrap;rounded=0;" vertex="1" parent="1">
                    <mxGeometry x="440" y="290" width="120" height="20" as="geometry"/>
                </mxCell>
                <mxCell id="154" value="For logged-in users only" style="text;html=1;strokeColor=none;fillColor=none;align=center;verticalAlign=middle;whiteSpace=wrap;rounded=0;" vertex="1" parent="1">
                    <mxGeometry x="430" y="480" width="140" height="20" as="geometry"/>
                </mxCell>
                <mxCell id="156" value="For logged-in users only" style="text;html=1;strokeColor=none;fillColor=none;align=center;verticalAlign=middle;whiteSpace=wrap;rounded=0;" vertex="1" parent="1">
                    <mxGeometry x="110" y="770" width="140" height="20" as="geometry"/>
                </mxCell>
                <mxCell id="157" value="For logged-in users only" style="text;html=1;strokeColor=none;fillColor=none;align=center;verticalAlign=middle;whiteSpace=wrap;rounded=0;" vertex="1" parent="1">
                    <mxGeometry x="270" y="728" width="140" height="20" as="geometry"/>
                </mxCell>
                <mxCell id="158" value="For logged-in users only" style="text;html=1;strokeColor=none;fillColor=none;align=center;verticalAlign=middle;whiteSpace=wrap;rounded=0;" vertex="1" parent="1">
                    <mxGeometry x="430" y="736" width="140" height="20" as="geometry"/>
                </mxCell>
                <mxCell id="159" value="For logged-in users only" style="text;html=1;strokeColor=none;fillColor=none;align=center;verticalAlign=middle;whiteSpace=wrap;rounded=0;" vertex="1" parent="1">
                    <mxGeometry x="590" y="500" width="140" height="20" as="geometry"/>
                </mxCell>
                <mxCell id="160" value="Create Events&lt;br&gt;Edit Events" style="text;html=1;strokeColor=none;fillColor=none;align=center;verticalAlign=middle;whiteSpace=wrap;rounded=0;" vertex="1" parent="1">
                    <mxGeometry x="120" y="530" width="120" height="30" as="geometry"/>
                </mxCell>
                <mxCell id="161" value="Create Team&lt;br&gt;Edit Team" style="text;html=1;strokeColor=none;fillColor=none;align=center;verticalAlign=middle;whiteSpace=wrap;rounded=0;" vertex="1" parent="1">
                    <mxGeometry x="280" y="530" width="120" height="30" as="geometry"/>
                </mxCell>
                <mxCell id="162" value="Create Locations&lt;br&gt;Edit Locations" style="text;html=1;strokeColor=none;fillColor=none;align=center;verticalAlign=middle;whiteSpace=wrap;rounded=0;" vertex="1" parent="1">
                    <mxGeometry x="440" y="530" width="120" height="30" as="geometry"/>
                </mxCell>
                <mxCell id="163" value="Create Person&lt;br&gt;Edit Person" style="text;html=1;strokeColor=none;fillColor=none;align=center;verticalAlign=middle;whiteSpace=wrap;rounded=0;" vertex="1" parent="1">
                    <mxGeometry x="600" y="290" width="120" height="30" as="geometry"/>
                </mxCell>
                <mxCell id="164" value="Create Roles&lt;br&gt;Edit Roles" style="text;html=1;strokeColor=none;fillColor=none;align=center;verticalAlign=middle;whiteSpace=wrap;rounded=0;" vertex="1" parent="1">
                    <mxGeometry x="40" y="1050" width="120" height="30" as="geometry"/>
                </mxCell>
                <mxCell id="165" value="Create Leagues&lt;br&gt;Edit Leagues" style="text;html=1;strokeColor=none;fillColor=none;align=center;verticalAlign=middle;whiteSpace=wrap;rounded=0;" vertex="1" parent="1">
                    <mxGeometry x="200" y="1050" width="120" height="30" as="geometry"/>
                </mxCell>
                <mxCell id="166" value="Create Contests&lt;br&gt;Edit Contests" style="text;html=1;strokeColor=none;fillColor=none;align=center;verticalAlign=middle;whiteSpace=wrap;rounded=0;" vertex="1" parent="1">
                    <mxGeometry x="360" y="1050" width="120" height="30" as="geometry"/>
                </mxCell>
                <mxCell id="167" value="Create Categories&lt;br&gt;Edit Categories" style="text;html=1;strokeColor=none;fillColor=none;align=center;verticalAlign=middle;whiteSpace=wrap;rounded=0;" vertex="1" parent="1">
                    <mxGeometry x="520" y="1050" width="120" height="30" as="geometry"/>
                </mxCell>
                <mxCell id="168" value="Create Countries&lt;br&gt;Edit Countries" style="text;html=1;strokeColor=none;fillColor=none;align=center;verticalAlign=middle;whiteSpace=wrap;rounded=0;" vertex="1" parent="1">
                    <mxGeometry x="680" y="1050" width="120" height="30" as="geometry"/>
                </mxCell>
                <mxCell id="169" value="Roles List" style="text;html=1;strokeColor=none;fillColor=none;align=center;verticalAlign=middle;whiteSpace=wrap;rounded=0;" vertex="1" parent="1">
                    <mxGeometry x="40" y="820" width="120" height="20" as="geometry"/>
                </mxCell>
                <mxCell id="170" value="Leagues List" style="text;html=1;strokeColor=none;fillColor=none;align=center;verticalAlign=middle;whiteSpace=wrap;rounded=0;" vertex="1" parent="1">
                    <mxGeometry x="200" y="820" width="120" height="20" as="geometry"/>
                </mxCell>
                <mxCell id="171" value="Contests List" style="text;html=1;strokeColor=none;fillColor=none;align=center;verticalAlign=middle;whiteSpace=wrap;rounded=0;" vertex="1" parent="1">
                    <mxGeometry x="360" y="820" width="120" height="20" as="geometry"/>
                </mxCell>
                <mxCell id="172" value="Sports Categories List" style="text;html=1;strokeColor=none;fillColor=none;align=center;verticalAlign=middle;whiteSpace=wrap;rounded=0;" vertex="1" parent="1">
                    <mxGeometry x="520" y="810" width="120" height="30" as="geometry"/>
                </mxCell>
                <mxCell id="173" value="Countries List" style="text;html=1;strokeColor=none;fillColor=none;align=center;verticalAlign=middle;whiteSpace=wrap;rounded=0;" vertex="1" parent="1">
                    <mxGeometry x="680" y="820" width="120" height="20" as="geometry"/>
                </mxCell>
                <mxCell id="174" value="For logged-in users only" style="text;html=1;strokeColor=none;fillColor=none;align=center;verticalAlign=middle;whiteSpace=wrap;rounded=0;" vertex="1" parent="1">
                    <mxGeometry x="30" y="1000" width="140" height="20" as="geometry"/>
                </mxCell>
                <mxCell id="175" value="For logged-in users only" style="text;html=1;strokeColor=none;fillColor=none;align=center;verticalAlign=middle;whiteSpace=wrap;rounded=0;" vertex="1" parent="1">
                    <mxGeometry x="190" y="1000" width="140" height="20" as="geometry"/>
                </mxCell>
                <mxCell id="176" value="For logged-in users only" style="text;html=1;strokeColor=none;fillColor=none;align=center;verticalAlign=middle;whiteSpace=wrap;rounded=0;" vertex="1" parent="1">
                    <mxGeometry x="350" y="1000" width="140" height="20" as="geometry"/>
                </mxCell>
                <mxCell id="177" value="For logged-in users only" style="text;html=1;strokeColor=none;fillColor=none;align=center;verticalAlign=middle;whiteSpace=wrap;rounded=0;" vertex="1" parent="1">
                    <mxGeometry x="510" y="1000" width="140" height="20" as="geometry"/>
                </mxCell>
                <mxCell id="178" value="For logged-in users only" style="text;html=1;strokeColor=none;fillColor=none;align=center;verticalAlign=middle;whiteSpace=wrap;rounded=0;" vertex="1" parent="1">
                    <mxGeometry x="670" y="1000" width="140" height="20" as="geometry"/>
                </mxCell>
                <mxCell id="179" value="For logged-in users only" style="text;html=1;strokeColor=none;fillColor=none;align=center;verticalAlign=middle;whiteSpace=wrap;rounded=0;" vertex="1" parent="1">
                    <mxGeometry x="30" y="1240" width="140" height="20" as="geometry"/>
                </mxCell>
                <mxCell id="180" value="For logged-in users only" style="text;html=1;strokeColor=none;fillColor=none;align=center;verticalAlign=middle;whiteSpace=wrap;rounded=0;" vertex="1" parent="1">
                    <mxGeometry x="190" y="1240" width="140" height="20" as="geometry"/>
                </mxCell>
                <mxCell id="181" value="For logged-in users only" style="text;html=1;strokeColor=none;fillColor=none;align=center;verticalAlign=middle;whiteSpace=wrap;rounded=0;" vertex="1" parent="1">
                    <mxGeometry x="350" y="1240" width="140" height="20" as="geometry"/>
                </mxCell>
                <mxCell id="182" value="For logged-in users only" style="text;html=1;strokeColor=none;fillColor=none;align=center;verticalAlign=middle;whiteSpace=wrap;rounded=0;" vertex="1" parent="1">
                    <mxGeometry x="510" y="1240" width="140" height="20" as="geometry"/>
                </mxCell>
                <mxCell id="183" value="For logged-in users only" style="text;html=1;strokeColor=none;fillColor=none;align=center;verticalAlign=middle;whiteSpace=wrap;rounded=0;" vertex="1" parent="1">
                    <mxGeometry x="670" y="1240" width="140" height="20" as="geometry"/>
                </mxCell>
                <mxCell id="184" value="Logo - Navbar" style="rounded=0;whiteSpace=wrap;html=1;fontSize=8;" vertex="1" parent="1">
                    <mxGeometry x="280" y="80" width="120" height="20" as="geometry"/>
                </mxCell>
                <mxCell id="185" value="Footer" style="rounded=0;whiteSpace=wrap;html=1;fontSize=8;" vertex="1" parent="1">
                    <mxGeometry x="120" y="220" width="120" height="20" as="geometry"/>
                </mxCell>
                <mxCell id="186" value="Logo - Navbar" style="rounded=0;whiteSpace=wrap;html=1;fontSize=8;" vertex="1" parent="1">
                    <mxGeometry x="120" y="80" width="120" height="20" as="geometry"/>
                </mxCell>
                <mxCell id="187" value="Footer" style="rounded=0;whiteSpace=wrap;html=1;fontSize=8;" vertex="1" parent="1">
                    <mxGeometry x="280" y="220" width="120" height="20" as="geometry"/>
                </mxCell>
                <mxCell id="188" value="Logo - Navbar" style="rounded=0;whiteSpace=wrap;html=1;fontSize=8;" vertex="1" parent="1">
                    <mxGeometry x="440" y="80" width="120" height="20" as="geometry"/>
                </mxCell>
                <mxCell id="189" value="Footer" style="rounded=0;whiteSpace=wrap;html=1;fontSize=8;" vertex="1" parent="1">
                    <mxGeometry x="440" y="220" width="120" height="20" as="geometry"/>
                </mxCell>
                <mxCell id="190" value="Logo - Navbar" style="rounded=0;whiteSpace=wrap;html=1;fontSize=8;" vertex="1" parent="1">
                    <mxGeometry x="600" y="80" width="120" height="20" as="geometry"/>
                </mxCell>
                <mxCell id="191" value="Footer" style="rounded=0;whiteSpace=wrap;html=1;fontSize=8;" vertex="1" parent="1">
                    <mxGeometry x="600" y="220" width="120" height="20" as="geometry"/>
                </mxCell>
                <mxCell id="200" value="Logo - Navbar" style="rounded=0;whiteSpace=wrap;html=1;fontSize=8;" vertex="1" parent="1">
                    <mxGeometry x="280" y="320" width="120" height="20" as="geometry"/>
                </mxCell>
                <mxCell id="201" value="Footer" style="rounded=0;whiteSpace=wrap;html=1;fontSize=8;" vertex="1" parent="1">
                    <mxGeometry x="120" y="460" width="120" height="20" as="geometry"/>
                </mxCell>
                <mxCell id="202" value="Logo - Navbar" style="rounded=0;whiteSpace=wrap;html=1;fontSize=8;" vertex="1" parent="1">
                    <mxGeometry x="120" y="320" width="120" height="20" as="geometry"/>
                </mxCell>
                <mxCell id="203" value="Footer" style="rounded=0;whiteSpace=wrap;html=1;fontSize=8;" vertex="1" parent="1">
                    <mxGeometry x="280" y="460" width="120" height="20" as="geometry"/>
                </mxCell>
                <mxCell id="204" value="Logo - Navbar" style="rounded=0;whiteSpace=wrap;html=1;fontSize=8;" vertex="1" parent="1">
                    <mxGeometry x="440" y="320" width="120" height="20" as="geometry"/>
                </mxCell>
                <mxCell id="205" value="Footer" style="rounded=0;whiteSpace=wrap;html=1;fontSize=8;" vertex="1" parent="1">
                    <mxGeometry x="440" y="460" width="120" height="20" as="geometry"/>
                </mxCell>
                <mxCell id="206" value="Logo - Navbar" style="rounded=0;whiteSpace=wrap;html=1;fontSize=8;" vertex="1" parent="1">
                    <mxGeometry x="600" y="320" width="120" height="20" as="geometry"/>
                </mxCell>
                <mxCell id="207" value="Footer" style="rounded=0;whiteSpace=wrap;html=1;fontSize=8;" vertex="1" parent="1">
                    <mxGeometry x="600" y="480" width="120" height="20" as="geometry"/>
                </mxCell>
                <mxCell id="208" value="Logo - Navbar" style="rounded=0;whiteSpace=wrap;html=1;fontSize=8;" vertex="1" parent="1">
                    <mxGeometry x="280" y="560" width="120" height="20" as="geometry"/>
                </mxCell>
                <mxCell id="209" value="Footer" style="rounded=0;whiteSpace=wrap;html=1;fontSize=8;" vertex="1" parent="1">
                    <mxGeometry x="120" y="750" width="120" height="20" as="geometry"/>
                </mxCell>
                <mxCell id="210" value="Logo - Navbar" style="rounded=0;whiteSpace=wrap;html=1;fontSize=8;" vertex="1" parent="1">
                    <mxGeometry x="120" y="560" width="120" height="20" as="geometry"/>
                </mxCell>
                <mxCell id="211" value="Footer" style="rounded=0;whiteSpace=wrap;html=1;fontSize=8;" vertex="1" parent="1">
                    <mxGeometry x="280" y="708" width="120" height="20" as="geometry"/>
                </mxCell>
                <mxCell id="212" value="Logo - Navbar" style="rounded=0;whiteSpace=wrap;html=1;fontSize=8;" vertex="1" parent="1">
                    <mxGeometry x="440" y="560" width="120" height="20" as="geometry"/>
                </mxCell>
                <mxCell id="213" value="Footer" style="rounded=0;whiteSpace=wrap;html=1;fontSize=8;" vertex="1" parent="1">
                    <mxGeometry x="440" y="716" width="120" height="20" as="geometry"/>
                </mxCell>
                <mxCell id="216" value="Logo - Navbar" style="rounded=0;whiteSpace=wrap;html=1;fontSize=8;" vertex="1" parent="1">
                    <mxGeometry x="200" y="840" width="120" height="20" as="geometry"/>
                </mxCell>
                <mxCell id="217" value="Footer" style="rounded=0;whiteSpace=wrap;html=1;fontSize=8;" vertex="1" parent="1">
                    <mxGeometry x="40" y="980" width="120" height="20" as="geometry"/>
                </mxCell>
                <mxCell id="218" value="Logo - Navbar" style="rounded=0;whiteSpace=wrap;html=1;fontSize=8;" vertex="1" parent="1">
                    <mxGeometry x="40" y="840" width="120" height="20" as="geometry"/>
                </mxCell>
                <mxCell id="219" value="Footer" style="rounded=0;whiteSpace=wrap;html=1;fontSize=8;" vertex="1" parent="1">
                    <mxGeometry x="200" y="980" width="120" height="20" as="geometry"/>
                </mxCell>
                <mxCell id="220" value="Logo - Navbar" style="rounded=0;whiteSpace=wrap;html=1;fontSize=8;" vertex="1" parent="1">
                    <mxGeometry x="360" y="840" width="120" height="20" as="geometry"/>
                </mxCell>
                <mxCell id="221" value="Footer" style="rounded=0;whiteSpace=wrap;html=1;fontSize=8;" vertex="1" parent="1">
                    <mxGeometry x="360" y="980" width="120" height="20" as="geometry"/>
                </mxCell>
                <mxCell id="222" value="Logo - Navbar" style="rounded=0;whiteSpace=wrap;html=1;fontSize=8;" vertex="1" parent="1">
                    <mxGeometry x="520" y="840" width="120" height="20" as="geometry"/>
                </mxCell>
                <mxCell id="223" value="Footer" style="rounded=0;whiteSpace=wrap;html=1;fontSize=8;" vertex="1" parent="1">
                    <mxGeometry x="520" y="980" width="120" height="20" as="geometry"/>
                </mxCell>
                <mxCell id="224" value="Logo - Navbar" style="rounded=0;whiteSpace=wrap;html=1;fontSize=8;" vertex="1" parent="1">
                    <mxGeometry x="680" y="840" width="120" height="20" as="geometry"/>
                </mxCell>
                <mxCell id="225" value="Footer" style="rounded=0;whiteSpace=wrap;html=1;fontSize=8;" vertex="1" parent="1">
                    <mxGeometry x="680" y="980" width="120" height="20" as="geometry"/>
                </mxCell>
                <mxCell id="226" value="Logo - Navbar" style="rounded=0;whiteSpace=wrap;html=1;fontSize=8;" vertex="1" parent="1">
                    <mxGeometry x="200" y="1080" width="120" height="20" as="geometry"/>
                </mxCell>
                <mxCell id="227" value="Footer" style="rounded=0;whiteSpace=wrap;html=1;fontSize=8;" vertex="1" parent="1">
                    <mxGeometry x="40" y="1220" width="120" height="20" as="geometry"/>
                </mxCell>
                <mxCell id="228" value="Logo - Navbar" style="rounded=0;whiteSpace=wrap;html=1;fontSize=8;" vertex="1" parent="1">
                    <mxGeometry x="40" y="1080" width="120" height="20" as="geometry"/>
                </mxCell>
                <mxCell id="229" value="Footer" style="rounded=0;whiteSpace=wrap;html=1;fontSize=8;" vertex="1" parent="1">
                    <mxGeometry x="200" y="1220" width="120" height="20" as="geometry"/>
                </mxCell>
                <mxCell id="230" value="Logo - Navbar" style="rounded=0;whiteSpace=wrap;html=1;fontSize=8;" vertex="1" parent="1">
                    <mxGeometry x="360" y="1080" width="120" height="20" as="geometry"/>
                </mxCell>
                <mxCell id="231" value="Footer" style="rounded=0;whiteSpace=wrap;html=1;fontSize=8;" vertex="1" parent="1">
                    <mxGeometry x="360" y="1220" width="120" height="20" as="geometry"/>
                </mxCell>
                <mxCell id="232" value="Logo - Navbar" style="rounded=0;whiteSpace=wrap;html=1;fontSize=8;" vertex="1" parent="1">
                    <mxGeometry x="520" y="1080" width="120" height="20" as="geometry"/>
                </mxCell>
                <mxCell id="233" value="Footer" style="rounded=0;whiteSpace=wrap;html=1;fontSize=8;" vertex="1" parent="1">
                    <mxGeometry x="520" y="1220" width="120" height="20" as="geometry"/>
                </mxCell>
                <mxCell id="234" value="Logo - Navbar" style="rounded=0;whiteSpace=wrap;html=1;fontSize=8;" vertex="1" parent="1">
                    <mxGeometry x="680" y="1080" width="120" height="20" as="geometry"/>
                </mxCell>
                <mxCell id="235" value="Footer" style="rounded=0;whiteSpace=wrap;html=1;fontSize=8;" vertex="1" parent="1">
                    <mxGeometry x="680" y="1220" width="120" height="20" as="geometry"/>
                </mxCell>
                <mxCell id="236" value="&lt;font style=&quot;font-size: 8px;&quot;&gt;Event&lt;/font&gt;" style="rounded=0;whiteSpace=wrap;html=1;fontSize=8;" vertex="1" parent="1">
                    <mxGeometry x="130" y="130" width="100" height="30" as="geometry"/>
                </mxCell>
                <mxCell id="237" value="Event" style="rounded=0;whiteSpace=wrap;html=1;fontSize=8;" vertex="1" parent="1">
                    <mxGeometry x="130" y="170" width="100" height="30" as="geometry"/>
                </mxCell>
                <mxCell id="238" value="" style="rounded=0;whiteSpace=wrap;html=1;" vertex="1" parent="1">
                    <mxGeometry x="130" y="210" width="100" height="10" as="geometry"/>
                </mxCell>
                <mxCell id="239" value="Team" style="rounded=0;whiteSpace=wrap;html=1;fontSize=8;" vertex="1" parent="1">
                    <mxGeometry x="290" y="110" width="30" height="50" as="geometry"/>
                </mxCell>
                <mxCell id="240" value="&lt;span style=&quot;font-size: 8px;&quot;&gt;Team&lt;/span&gt;" style="rounded=0;whiteSpace=wrap;html=1;fontSize=8;" vertex="1" parent="1">
                    <mxGeometry x="360" y="110" width="30" height="50" as="geometry"/>
                </mxCell>
                <mxCell id="241" value="&lt;span style=&quot;font-size: 8px;&quot;&gt;Team&lt;/span&gt;" style="rounded=0;whiteSpace=wrap;html=1;fontSize=8;" vertex="1" parent="1">
                    <mxGeometry x="325" y="110" width="30" height="50" as="geometry"/>
                </mxCell>
                <mxCell id="243" value="&lt;span style=&quot;font-size: 8px;&quot;&gt;Team&lt;/span&gt;" style="rounded=0;whiteSpace=wrap;html=1;fontSize=8;" vertex="1" parent="1">
                    <mxGeometry x="290" y="170" width="30" height="50" as="geometry"/>
                </mxCell>
                <mxCell id="244" value="&lt;span style=&quot;font-size: 8px;&quot;&gt;Team&lt;/span&gt;" style="rounded=0;whiteSpace=wrap;html=1;fontSize=8;" vertex="1" parent="1">
                    <mxGeometry x="360" y="170" width="30" height="50" as="geometry"/>
                </mxCell>
                <mxCell id="245" value="&lt;span style=&quot;font-size: 8px;&quot;&gt;Team&lt;/span&gt;" style="rounded=0;whiteSpace=wrap;html=1;fontSize=8;" vertex="1" parent="1">
                    <mxGeometry x="325" y="170" width="30" height="50" as="geometry"/>
                </mxCell>
                <mxCell id="246" value="&lt;font style=&quot;font-size: 8px;&quot;&gt;Category Selection&lt;/font&gt;" style="rounded=0;whiteSpace=wrap;html=1;fontSize=8;" vertex="1" parent="1">
                    <mxGeometry x="140" y="110" width="80" height="10" as="geometry"/>
                </mxCell>
                <mxCell id="247" value="&lt;font style=&quot;font-size: 7px&quot;&gt;Location&lt;/font&gt;" style="rounded=0;whiteSpace=wrap;html=1;fontSize=8;" vertex="1" parent="1">
                    <mxGeometry x="450" y="110" width="30" height="50" as="geometry"/>
                </mxCell>
                <mxCell id="248" value="&lt;span style=&quot;font-size: 7px&quot;&gt;Location&lt;/span&gt;" style="rounded=0;whiteSpace=wrap;html=1;fontSize=8;" vertex="1" parent="1">
                    <mxGeometry x="520" y="110" width="30" height="50" as="geometry"/>
                </mxCell>
                <mxCell id="249" value="&lt;span style=&quot;font-size: 7px&quot;&gt;Location&lt;/span&gt;" style="rounded=0;whiteSpace=wrap;html=1;fontSize=8;" vertex="1" parent="1">
                    <mxGeometry x="485" y="110" width="30" height="50" as="geometry"/>
                </mxCell>
                <mxCell id="250" value="&lt;span style=&quot;font-size: 7px&quot;&gt;Location&lt;/span&gt;" style="rounded=0;whiteSpace=wrap;html=1;fontSize=8;" vertex="1" parent="1">
                    <mxGeometry x="450" y="170" width="30" height="50" as="geometry"/>
                </mxCell>
                <mxCell id="251" value="&lt;span style=&quot;font-size: 7px&quot;&gt;Location&lt;/span&gt;" style="rounded=0;whiteSpace=wrap;html=1;fontSize=8;" vertex="1" parent="1">
                    <mxGeometry x="520" y="170" width="30" height="50" as="geometry"/>
                </mxCell>
                <mxCell id="252" value="&lt;span style=&quot;font-size: 7px&quot;&gt;Location&lt;/span&gt;" style="rounded=0;whiteSpace=wrap;html=1;fontSize=8;" vertex="1" parent="1">
                    <mxGeometry x="485" y="170" width="30" height="50" as="geometry"/>
                </mxCell>
                <mxCell id="253" value="&lt;span style=&quot;font-size: 8px&quot;&gt;Image&lt;/span&gt;" style="rounded=0;whiteSpace=wrap;html=1;fontSize=8;" vertex="1" parent="1">
                    <mxGeometry x="132" y="345" width="95" height="20" as="geometry"/>
                </mxCell>
                <mxCell id="254" value="Event&lt;br&gt;Dates and Information" style="rounded=0;whiteSpace=wrap;html=1;fontSize=8;" vertex="1" parent="1">
                    <mxGeometry x="132" y="370" width="55" height="80" as="geometry"/>
                </mxCell>
                <mxCell id="255" value="Location&lt;br&gt;Infos" style="rounded=0;whiteSpace=wrap;html=1;fontSize=8;" vertex="1" parent="1">
                    <mxGeometry x="192" y="370" width="35" height="80" as="geometry"/>
                </mxCell>
                <mxCell id="257" value="Player" style="rounded=0;whiteSpace=wrap;html=1;fontSize=8;" vertex="1" parent="1">
                    <mxGeometry x="288" y="416" width="32" height="40" as="geometry"/>
                </mxCell>
                <mxCell id="259" value="Team Infos and logo" style="rounded=0;whiteSpace=wrap;html=1;fontSize=8;" vertex="1" parent="1">
                    <mxGeometry x="288" y="350" width="105" height="40" as="geometry"/>
                </mxCell>
                <mxCell id="260" value="Country and League" style="rounded=0;whiteSpace=wrap;html=1;fontSize=8;" vertex="1" parent="1">
                    <mxGeometry x="288" y="395" width="105" height="16" as="geometry"/>
                </mxCell>
                <mxCell id="262" value="Player" style="rounded=0;whiteSpace=wrap;html=1;fontSize=8;" vertex="1" parent="1">
                    <mxGeometry x="361" y="416" width="32" height="40" as="geometry"/>
                </mxCell>
                <mxCell id="263" value="Player" style="rounded=0;whiteSpace=wrap;html=1;fontSize=8;" vertex="1" parent="1">
                    <mxGeometry x="325" y="416" width="32" height="40" as="geometry"/>
                </mxCell>
                <mxCell id="264" value="&lt;font style=&quot;font-size: 7px&quot;&gt;Person&lt;/font&gt;" style="rounded=0;whiteSpace=wrap;html=1;fontSize=8;" vertex="1" parent="1">
                    <mxGeometry x="610" y="110" width="30" height="50" as="geometry"/>
                </mxCell>
                <mxCell id="265" value="&lt;span style=&quot;font-size: 7px&quot;&gt;Person&lt;/span&gt;" style="rounded=0;whiteSpace=wrap;html=1;fontSize=8;" vertex="1" parent="1">
                    <mxGeometry x="680" y="110" width="30" height="50" as="geometry"/>
                </mxCell>
                <mxCell id="266" value="&lt;span style=&quot;font-size: 7px&quot;&gt;Person&lt;/span&gt;" style="rounded=0;whiteSpace=wrap;html=1;fontSize=8;" vertex="1" parent="1">
                    <mxGeometry x="645" y="110" width="30" height="50" as="geometry"/>
                </mxCell>
                <mxCell id="267" value="&lt;span style=&quot;font-size: 7px&quot;&gt;Person&lt;/span&gt;" style="rounded=0;whiteSpace=wrap;html=1;fontSize=8;" vertex="1" parent="1">
                    <mxGeometry x="610" y="170" width="30" height="50" as="geometry"/>
                </mxCell>
                <mxCell id="268" value="&lt;span style=&quot;font-size: 7px&quot;&gt;Person&lt;/span&gt;" style="rounded=0;whiteSpace=wrap;html=1;fontSize=8;" vertex="1" parent="1">
                    <mxGeometry x="680" y="170" width="30" height="50" as="geometry"/>
                </mxCell>
                <mxCell id="269" value="&lt;span style=&quot;font-size: 7px&quot;&gt;Person&lt;/span&gt;" style="rounded=0;whiteSpace=wrap;html=1;fontSize=8;" vertex="1" parent="1">
                    <mxGeometry x="645" y="170" width="30" height="50" as="geometry"/>
                </mxCell>
                <mxCell id="270" value="Event" style="rounded=0;whiteSpace=wrap;html=1;fontSize=8;" vertex="1" parent="1">
                    <mxGeometry x="447" y="395" width="32" height="40" as="geometry"/>
                </mxCell>
                <mxCell id="271" value="Location Infos and Photo" style="rounded=0;whiteSpace=wrap;html=1;fontSize=8;" vertex="1" parent="1">
                    <mxGeometry x="447" y="350" width="105" height="40" as="geometry"/>
                </mxCell>
                <mxCell id="272" value="Event" style="rounded=0;whiteSpace=wrap;html=1;fontSize=8;" vertex="1" parent="1">
                    <mxGeometry x="520" y="395" width="32" height="40" as="geometry"/>
                </mxCell>
                <mxCell id="273" value="Event" style="rounded=0;whiteSpace=wrap;html=1;fontSize=8;" vertex="1" parent="1">
                    <mxGeometry x="484" y="395" width="32" height="40" as="geometry"/>
                </mxCell>
                <mxCell id="274" value="" style="rounded=0;whiteSpace=wrap;html=1;fontSize=8;" vertex="1" parent="1">
                    <mxGeometry x="447" y="441" width="32" height="19" as="geometry"/>
                </mxCell>
                <mxCell id="275" value="" style="rounded=0;whiteSpace=wrap;html=1;fontSize=8;" vertex="1" parent="1">
                    <mxGeometry x="520" y="441" width="32" height="19" as="geometry"/>
                </mxCell>
                <mxCell id="276" value="" style="rounded=0;whiteSpace=wrap;html=1;fontSize=8;" vertex="1" parent="1">
                    <mxGeometry x="484" y="441" width="32" height="19" as="geometry"/>
                </mxCell>
                <mxCell id="278" value="First Name" style="text;html=1;strokeColor=none;fillColor=none;align=right;verticalAlign=middle;whiteSpace=wrap;rounded=0;fontSize=8;" vertex="1" parent="1">
                    <mxGeometry x="605" y="341" width="55" height="10" as="geometry"/>
                </mxCell>
                <mxCell id="279" value="Middle Name" style="text;html=1;strokeColor=none;fillColor=none;align=right;verticalAlign=middle;whiteSpace=wrap;rounded=0;fontSize=8;" vertex="1" parent="1">
                    <mxGeometry x="605" y="356" width="55" height="10" as="geometry"/>
                </mxCell>
                <mxCell id="280" value="Last Name" style="text;html=1;strokeColor=none;fillColor=none;align=right;verticalAlign=middle;whiteSpace=wrap;rounded=0;fontSize=8;" vertex="1" parent="1">
                    <mxGeometry x="605" y="372" width="55" height="10" as="geometry"/>
                </mxCell>
                <mxCell id="281" value="Title" style="text;html=1;strokeColor=none;fillColor=none;align=right;verticalAlign=middle;whiteSpace=wrap;rounded=0;fontSize=8;" vertex="1" parent="1">
                    <mxGeometry x="605" y="387" width="55" height="10" as="geometry"/>
                </mxCell>
                <mxCell id="282" value="Photo" style="text;html=1;strokeColor=none;fillColor=none;align=right;verticalAlign=middle;whiteSpace=wrap;rounded=0;fontSize=8;" vertex="1" parent="1">
                    <mxGeometry x="605" y="402" width="55" height="10" as="geometry"/>
                </mxCell>
                <mxCell id="283" value="Nationality" style="text;html=1;strokeColor=none;fillColor=none;align=right;verticalAlign=middle;whiteSpace=wrap;rounded=0;fontSize=8;" vertex="1" parent="1">
                    <mxGeometry x="605" y="417" width="55" height="10" as="geometry"/>
                </mxCell>
                <mxCell id="284" value="Team" style="text;html=1;strokeColor=none;fillColor=none;align=right;verticalAlign=middle;whiteSpace=wrap;rounded=0;fontSize=8;" vertex="1" parent="1">
                    <mxGeometry x="605" y="433" width="55" height="10" as="geometry"/>
                </mxCell>
                <mxCell id="285" value="Role" style="text;html=1;strokeColor=none;fillColor=none;align=right;verticalAlign=middle;whiteSpace=wrap;rounded=0;fontSize=8;" vertex="1" parent="1">
                    <mxGeometry x="605" y="448" width="55" height="10" as="geometry"/>
                </mxCell>
                <mxCell id="286" value="" style="rounded=0;whiteSpace=wrap;html=1;fontSize=8;" vertex="1" parent="1">
                    <mxGeometry x="664" y="342" width="50" height="9" as="geometry"/>
                </mxCell>
                <mxCell id="289" value="" style="rounded=0;whiteSpace=wrap;html=1;fontSize=8;" vertex="1" parent="1">
                    <mxGeometry x="664" y="357" width="50" height="9" as="geometry"/>
                </mxCell>
                <mxCell id="290" value="" style="rounded=0;whiteSpace=wrap;html=1;fontSize=8;" vertex="1" parent="1">
                    <mxGeometry x="664" y="388" width="50" height="9" as="geometry"/>
                </mxCell>
                <mxCell id="291" value="" style="rounded=0;whiteSpace=wrap;html=1;fontSize=8;" vertex="1" parent="1">
                    <mxGeometry x="664" y="403" width="50" height="9" as="geometry"/>
                </mxCell>
                <mxCell id="292" value="" style="rounded=0;whiteSpace=wrap;html=1;fontSize=8;" vertex="1" parent="1">
                    <mxGeometry x="664" y="418" width="50" height="9" as="geometry"/>
                </mxCell>
                <mxCell id="293" value="" style="rounded=0;whiteSpace=wrap;html=1;fontSize=8;" vertex="1" parent="1">
                    <mxGeometry x="664" y="434" width="50" height="9" as="geometry"/>
                </mxCell>
                <mxCell id="294" value="" style="rounded=0;whiteSpace=wrap;html=1;fontSize=8;" vertex="1" parent="1">
                    <mxGeometry x="664" y="449" width="50" height="9" as="geometry"/>
                </mxCell>
                <mxCell id="295" value="" style="rounded=0;whiteSpace=wrap;html=1;fontSize=8;" vertex="1" parent="1">
                    <mxGeometry x="664" y="373" width="50" height="9" as="geometry"/>
                </mxCell>
                <mxCell id="296" value="Event Name" style="text;html=1;strokeColor=none;fillColor=none;align=right;verticalAlign=middle;whiteSpace=wrap;rounded=0;fontSize=8;" vertex="1" parent="1">
                    <mxGeometry x="125" y="585" width="55" height="10" as="geometry"/>
                </mxCell>
                <mxCell id="297" value="Category" style="text;html=1;strokeColor=none;fillColor=none;align=right;verticalAlign=middle;whiteSpace=wrap;rounded=0;fontSize=8;" vertex="1" parent="1">
                    <mxGeometry x="125" y="600" width="55" height="10" as="geometry"/>
                </mxCell>
                <mxCell id="298" value="Team A" style="text;html=1;strokeColor=none;fillColor=none;align=right;verticalAlign=middle;whiteSpace=wrap;rounded=0;fontSize=8;" vertex="1" parent="1">
                    <mxGeometry x="125" y="616" width="55" height="10" as="geometry"/>
                </mxCell>
                <mxCell id="299" value="Team B" style="text;html=1;strokeColor=none;fillColor=none;align=right;verticalAlign=middle;whiteSpace=wrap;rounded=0;fontSize=8;" vertex="1" parent="1">
                    <mxGeometry x="125" y="631" width="55" height="10" as="geometry"/>
                </mxCell>
                <mxCell id="300" value="Score A &amp;amp; B" style="text;html=1;strokeColor=none;fillColor=none;align=right;verticalAlign=middle;whiteSpace=wrap;rounded=0;fontSize=8;" vertex="1" parent="1">
                    <mxGeometry x="125" y="646" width="55" height="10" as="geometry"/>
                </mxCell>
                <mxCell id="301" value="Contest" style="text;html=1;strokeColor=none;fillColor=none;align=right;verticalAlign=middle;whiteSpace=wrap;rounded=0;fontSize=8;" vertex="1" parent="1">
                    <mxGeometry x="125" y="661" width="55" height="10" as="geometry"/>
                </mxCell>
                <mxCell id="302" value="Location" style="text;html=1;strokeColor=none;fillColor=none;align=right;verticalAlign=middle;whiteSpace=wrap;rounded=0;fontSize=8;" vertex="1" parent="1">
                    <mxGeometry x="125" y="677" width="55" height="10" as="geometry"/>
                </mxCell>
                <mxCell id="303" value="Date &amp;amp; Time" style="text;html=1;strokeColor=none;fillColor=none;align=right;verticalAlign=middle;whiteSpace=wrap;rounded=0;fontSize=8;" vertex="1" parent="1">
                    <mxGeometry x="125" y="692" width="55" height="10" as="geometry"/>
                </mxCell>
                <mxCell id="304" value="" style="rounded=0;whiteSpace=wrap;html=1;fontSize=8;" vertex="1" parent="1">
                    <mxGeometry x="184" y="586" width="50" height="9" as="geometry"/>
                </mxCell>
                <mxCell id="305" value="" style="rounded=0;whiteSpace=wrap;html=1;fontSize=8;" vertex="1" parent="1">
                    <mxGeometry x="184" y="601" width="50" height="9" as="geometry"/>
                </mxCell>
                <mxCell id="306" value="" style="rounded=0;whiteSpace=wrap;html=1;fontSize=8;" vertex="1" parent="1">
                    <mxGeometry x="184" y="632" width="50" height="9" as="geometry"/>
                </mxCell>
                <mxCell id="307" value="" style="rounded=0;whiteSpace=wrap;html=1;fontSize=8;" vertex="1" parent="1">
                    <mxGeometry x="184" y="647" width="50" height="9" as="geometry"/>
                </mxCell>
                <mxCell id="308" value="" style="rounded=0;whiteSpace=wrap;html=1;fontSize=8;" vertex="1" parent="1">
                    <mxGeometry x="184" y="662" width="50" height="9" as="geometry"/>
                </mxCell>
                <mxCell id="309" value="" style="rounded=0;whiteSpace=wrap;html=1;fontSize=8;" vertex="1" parent="1">
                    <mxGeometry x="184" y="678" width="50" height="9" as="geometry"/>
                </mxCell>
                <mxCell id="310" value="" style="rounded=0;whiteSpace=wrap;html=1;fontSize=8;" vertex="1" parent="1">
                    <mxGeometry x="184" y="693" width="50" height="9" as="geometry"/>
                </mxCell>
                <mxCell id="311" value="" style="rounded=0;whiteSpace=wrap;html=1;fontSize=8;" vertex="1" parent="1">
                    <mxGeometry x="184" y="617" width="50" height="9" as="geometry"/>
                </mxCell>
                <mxCell id="312" value="Image URL" style="text;html=1;strokeColor=none;fillColor=none;align=right;verticalAlign=middle;whiteSpace=wrap;rounded=0;fontSize=8;" vertex="1" parent="1">
                    <mxGeometry x="125" y="706" width="55" height="10" as="geometry"/>
                </mxCell>
                <mxCell id="313" value="" style="rounded=0;whiteSpace=wrap;html=1;fontSize=8;" vertex="1" parent="1">
                    <mxGeometry x="184" y="707" width="50" height="9" as="geometry"/>
                </mxCell>
                <mxCell id="314" value="Notes" style="text;html=1;strokeColor=none;fillColor=none;align=right;verticalAlign=middle;whiteSpace=wrap;rounded=0;fontSize=8;" vertex="1" parent="1">
                    <mxGeometry x="125" y="720" width="55" height="10" as="geometry"/>
                </mxCell>
                <mxCell id="315" value="" style="rounded=0;whiteSpace=wrap;html=1;fontSize=8;" vertex="1" parent="1">
                    <mxGeometry x="184" y="721" width="50" height="13" as="geometry"/>
                </mxCell>
                <mxCell id="316" value="Team Name" style="text;html=1;strokeColor=none;fillColor=none;align=right;verticalAlign=middle;whiteSpace=wrap;rounded=0;fontSize=8;" vertex="1" parent="1">
                    <mxGeometry x="285" y="589" width="55" height="10" as="geometry"/>
                </mxCell>
                <mxCell id="317" value="Category" style="text;html=1;strokeColor=none;fillColor=none;align=right;verticalAlign=middle;whiteSpace=wrap;rounded=0;fontSize=8;" vertex="1" parent="1">
                    <mxGeometry x="285" y="604" width="55" height="10" as="geometry"/>
                </mxCell>
                <mxCell id="318" value="League" style="text;html=1;strokeColor=none;fillColor=none;align=right;verticalAlign=middle;whiteSpace=wrap;rounded=0;fontSize=8;" vertex="1" parent="1">
                    <mxGeometry x="285" y="620" width="55" height="10" as="geometry"/>
                </mxCell>
                <mxCell id="319" value="Ranking" style="text;html=1;strokeColor=none;fillColor=none;align=right;verticalAlign=middle;whiteSpace=wrap;rounded=0;fontSize=8;" vertex="1" parent="1">
                    <mxGeometry x="285" y="635" width="55" height="10" as="geometry"/>
                </mxCell>
                <mxCell id="320" value="Logo URL" style="text;html=1;strokeColor=none;fillColor=none;align=right;verticalAlign=middle;whiteSpace=wrap;rounded=0;fontSize=8;" vertex="1" parent="1">
                    <mxGeometry x="285" y="650" width="55" height="10" as="geometry"/>
                </mxCell>
                <mxCell id="321" value="Description" style="text;html=1;strokeColor=none;fillColor=none;align=right;verticalAlign=middle;whiteSpace=wrap;rounded=0;fontSize=8;" vertex="1" parent="1">
                    <mxGeometry x="285" y="665" width="55" height="10" as="geometry"/>
                </mxCell>
                <mxCell id="324" value="" style="rounded=0;whiteSpace=wrap;html=1;fontSize=8;" vertex="1" parent="1">
                    <mxGeometry x="344" y="590" width="50" height="9" as="geometry"/>
                </mxCell>
                <mxCell id="325" value="" style="rounded=0;whiteSpace=wrap;html=1;fontSize=8;" vertex="1" parent="1">
                    <mxGeometry x="344" y="605" width="50" height="9" as="geometry"/>
                </mxCell>
                <mxCell id="326" value="" style="rounded=0;whiteSpace=wrap;html=1;fontSize=8;" vertex="1" parent="1">
                    <mxGeometry x="344" y="636" width="50" height="9" as="geometry"/>
                </mxCell>
                <mxCell id="327" value="" style="rounded=0;whiteSpace=wrap;html=1;fontSize=8;" vertex="1" parent="1">
                    <mxGeometry x="344" y="651" width="50" height="9" as="geometry"/>
                </mxCell>
                <mxCell id="328" value="" style="rounded=0;whiteSpace=wrap;html=1;fontSize=8;" vertex="1" parent="1">
                    <mxGeometry x="344" y="666" width="50" height="22" as="geometry"/>
                </mxCell>
                <mxCell id="331" value="" style="rounded=0;whiteSpace=wrap;html=1;fontSize=8;" vertex="1" parent="1">
                    <mxGeometry x="344" y="621" width="50" height="9" as="geometry"/>
                </mxCell>
                <mxCell id="332" value="Name" style="text;html=1;strokeColor=none;fillColor=none;align=right;verticalAlign=middle;whiteSpace=wrap;rounded=0;fontSize=8;" vertex="1" parent="1">
                    <mxGeometry x="445" y="585" width="55" height="10" as="geometry"/>
                </mxCell>
                <mxCell id="333" value="Image URL" style="text;html=1;strokeColor=none;fillColor=none;align=right;verticalAlign=middle;whiteSpace=wrap;rounded=0;fontSize=8;" vertex="1" parent="1">
                    <mxGeometry x="445" y="600" width="55" height="10" as="geometry"/>
                </mxCell>
                <mxCell id="334" value="Capacity" style="text;html=1;strokeColor=none;fillColor=none;align=right;verticalAlign=middle;whiteSpace=wrap;rounded=0;fontSize=8;" vertex="1" parent="1">
                    <mxGeometry x="445" y="616" width="55" height="10" as="geometry"/>
                </mxCell>
                <mxCell id="335" value="Website" style="text;html=1;strokeColor=none;fillColor=none;align=right;verticalAlign=middle;whiteSpace=wrap;rounded=0;fontSize=8;" vertex="1" parent="1">
                    <mxGeometry x="445" y="631" width="55" height="10" as="geometry"/>
                </mxCell>
                <mxCell id="336" value="&lt;font style=&quot;font-size: 8px;&quot;&gt;Phone &amp;amp; Email&lt;/font&gt;" style="text;html=1;strokeColor=none;fillColor=none;align=right;verticalAlign=middle;whiteSpace=wrap;rounded=0;fontSize=8;" vertex="1" parent="1">
                    <mxGeometry x="440" y="646" width="60" height="10" as="geometry"/>
                </mxCell>
                <mxCell id="337" value="Address" style="text;html=1;strokeColor=none;fillColor=none;align=right;verticalAlign=middle;whiteSpace=wrap;rounded=0;fontSize=8;" vertex="1" parent="1">
                    <mxGeometry x="445" y="661" width="55" height="10" as="geometry"/>
                </mxCell>
                <mxCell id="338" value="Description" style="text;html=1;strokeColor=none;fillColor=none;align=right;verticalAlign=middle;whiteSpace=wrap;rounded=0;fontSize=8;" vertex="1" parent="1">
                    <mxGeometry x="445" y="677" width="55" height="10" as="geometry"/>
                </mxCell>
                <mxCell id="340" value="" style="rounded=0;whiteSpace=wrap;html=1;fontSize=8;" vertex="1" parent="1">
                    <mxGeometry x="504" y="586" width="50" height="9" as="geometry"/>
                </mxCell>
                <mxCell id="341" value="" style="rounded=0;whiteSpace=wrap;html=1;fontSize=8;" vertex="1" parent="1">
                    <mxGeometry x="504" y="601" width="50" height="9" as="geometry"/>
                </mxCell>
                <mxCell id="342" value="" style="rounded=0;whiteSpace=wrap;html=1;fontSize=8;" vertex="1" parent="1">
                    <mxGeometry x="504" y="632" width="50" height="9" as="geometry"/>
                </mxCell>
                <mxCell id="343" value="" style="rounded=0;whiteSpace=wrap;html=1;fontSize=8;" vertex="1" parent="1">
                    <mxGeometry x="504" y="647" width="50" height="9" as="geometry"/>
                </mxCell>
                <mxCell id="344" value="" style="rounded=0;whiteSpace=wrap;html=1;fontSize=8;" vertex="1" parent="1">
                    <mxGeometry x="504" y="662" width="50" height="9" as="geometry"/>
                </mxCell>
                <mxCell id="345" value="" style="rounded=0;whiteSpace=wrap;html=1;fontSize=8;" vertex="1" parent="1">
                    <mxGeometry x="504" y="678" width="50" height="16" as="geometry"/>
                </mxCell>
                <mxCell id="347" value="" style="rounded=0;whiteSpace=wrap;html=1;fontSize=8;" vertex="1" parent="1">
                    <mxGeometry x="504" y="617" width="50" height="9" as="geometry"/>
                </mxCell>
                <mxCell id="348" value="Country Name" style="text;html=1;strokeColor=none;fillColor=none;align=right;verticalAlign=middle;whiteSpace=wrap;rounded=0;fontSize=8;" vertex="1" parent="1">
                    <mxGeometry x="685" y="1111" width="55" height="10" as="geometry"/>
                </mxCell>
                <mxCell id="349" value="Flag URL" style="text;html=1;strokeColor=none;fillColor=none;align=right;verticalAlign=middle;whiteSpace=wrap;rounded=0;fontSize=8;" vertex="1" parent="1">
                    <mxGeometry x="685" y="1126" width="55" height="10" as="geometry"/>
                </mxCell>
                <mxCell id="356" value="" style="rounded=0;whiteSpace=wrap;html=1;fontSize=8;" vertex="1" parent="1">
                    <mxGeometry x="744" y="1112" width="50" height="9" as="geometry"/>
                </mxCell>
                <mxCell id="357" value="" style="rounded=0;whiteSpace=wrap;html=1;fontSize=8;" vertex="1" parent="1">
                    <mxGeometry x="744" y="1127" width="50" height="9" as="geometry"/>
                </mxCell>
                <mxCell id="364" value="Save" style="rounded=0;whiteSpace=wrap;html=1;fontSize=6;" vertex="1" parent="1">
                    <mxGeometry x="769" y="1143" width="25" height="12" as="geometry"/>
                </mxCell>
                <mxCell id="369" value="" style="group" vertex="1" connectable="0" parent="1">
                    <mxGeometry x="685" y="866" width="30" height="50" as="geometry"/>
                </mxCell>
                <mxCell id="365" value="&lt;font style=&quot;font-size: 7px&quot;&gt;&lt;br&gt;&lt;br&gt;Country&lt;br&gt;Infos&lt;br&gt;&lt;/font&gt;" style="rounded=0;whiteSpace=wrap;html=1;fontSize=8;" vertex="1" parent="369">
                    <mxGeometry width="30" height="50" as="geometry"/>
                </mxCell>
                <mxCell id="368" value="&lt;font style=&quot;font-size: 7px&quot;&gt;Flag&lt;br&gt;&lt;/font&gt;" style="rounded=0;whiteSpace=wrap;html=1;fontSize=8;" vertex="1" parent="369">
                    <mxGeometry x="2" y="4" width="26" height="18" as="geometry"/>
                </mxCell>
                <mxCell id="370" value="" style="group" vertex="1" connectable="0" parent="1">
                    <mxGeometry x="725" y="866" width="30" height="50" as="geometry"/>
                </mxCell>
                <mxCell id="371" value="&lt;font style=&quot;font-size: 7px&quot;&gt;&lt;br&gt;&lt;br&gt;Country&lt;br&gt;Infos&lt;br&gt;&lt;/font&gt;" style="rounded=0;whiteSpace=wrap;html=1;fontSize=8;" vertex="1" parent="370">
                    <mxGeometry width="30" height="50" as="geometry"/>
                </mxCell>
                <mxCell id="372" value="&lt;font style=&quot;font-size: 7px&quot;&gt;Flag&lt;br&gt;&lt;/font&gt;" style="rounded=0;whiteSpace=wrap;html=1;fontSize=8;" vertex="1" parent="370">
                    <mxGeometry x="2" y="4" width="26" height="18" as="geometry"/>
                </mxCell>
                <mxCell id="373" value="" style="group" vertex="1" connectable="0" parent="1">
                    <mxGeometry x="765" y="866" width="30" height="50" as="geometry"/>
                </mxCell>
                <mxCell id="374" value="&lt;font style=&quot;font-size: 7px&quot;&gt;&lt;br&gt;&lt;br&gt;Country&lt;br&gt;Infos&lt;br&gt;&lt;/font&gt;" style="rounded=0;whiteSpace=wrap;html=1;fontSize=8;" vertex="1" parent="373">
                    <mxGeometry width="30" height="50" as="geometry"/>
                </mxCell>
                <mxCell id="375" value="&lt;font style=&quot;font-size: 7px&quot;&gt;Flag&lt;br&gt;&lt;/font&gt;" style="rounded=0;whiteSpace=wrap;html=1;fontSize=8;" vertex="1" parent="373">
                    <mxGeometry x="2" y="4" width="26" height="18" as="geometry"/>
                </mxCell>
                <mxCell id="377" value="" style="group" vertex="1" connectable="0" parent="1">
                    <mxGeometry x="685" y="923" width="30" height="50" as="geometry"/>
                </mxCell>
                <mxCell id="378" value="&lt;font style=&quot;font-size: 7px&quot;&gt;&lt;br&gt;&lt;br&gt;Country&lt;br&gt;Infos&lt;br&gt;&lt;/font&gt;" style="rounded=0;whiteSpace=wrap;html=1;fontSize=8;" vertex="1" parent="377">
                    <mxGeometry width="30" height="50" as="geometry"/>
                </mxCell>
                <mxCell id="379" value="&lt;font style=&quot;font-size: 7px&quot;&gt;Flag&lt;br&gt;&lt;/font&gt;" style="rounded=0;whiteSpace=wrap;html=1;fontSize=8;" vertex="1" parent="377">
                    <mxGeometry x="2" y="4" width="26" height="18" as="geometry"/>
                </mxCell>
                <mxCell id="380" value="" style="group" vertex="1" connectable="0" parent="1">
                    <mxGeometry x="725" y="923" width="30" height="50" as="geometry"/>
                </mxCell>
                <mxCell id="381" value="&lt;font style=&quot;font-size: 7px&quot;&gt;&lt;br&gt;&lt;br&gt;Country&lt;br&gt;Infos&lt;br&gt;&lt;/font&gt;" style="rounded=0;whiteSpace=wrap;html=1;fontSize=8;" vertex="1" parent="380">
                    <mxGeometry width="30" height="50" as="geometry"/>
                </mxCell>
                <mxCell id="382" value="&lt;font style=&quot;font-size: 7px&quot;&gt;Flag&lt;br&gt;&lt;/font&gt;" style="rounded=0;whiteSpace=wrap;html=1;fontSize=8;" vertex="1" parent="380">
                    <mxGeometry x="2" y="4" width="26" height="18" as="geometry"/>
                </mxCell>
                <mxCell id="383" value="" style="group" vertex="1" connectable="0" parent="1">
                    <mxGeometry x="765" y="923" width="30" height="50" as="geometry"/>
                </mxCell>
                <mxCell id="384" value="&lt;font style=&quot;font-size: 7px&quot;&gt;&lt;br&gt;&lt;br&gt;Country&lt;br&gt;Infos&lt;br&gt;&lt;/font&gt;" style="rounded=0;whiteSpace=wrap;html=1;fontSize=8;" vertex="1" parent="383">
                    <mxGeometry width="30" height="50" as="geometry"/>
                </mxCell>
                <mxCell id="385" value="&lt;font style=&quot;font-size: 7px&quot;&gt;Flag&lt;br&gt;&lt;/font&gt;" style="rounded=0;whiteSpace=wrap;html=1;fontSize=8;" vertex="1" parent="383">
                    <mxGeometry x="2" y="4" width="26" height="18" as="geometry"/>
                </mxCell>
                <mxCell id="395" value="Cat-&lt;br&gt;egory" style="rounded=0;whiteSpace=wrap;html=1;fontSize=8;" vertex="1" parent="1">
                    <mxGeometry x="527.5" y="865" width="32" height="40" as="geometry"/>
                </mxCell>
                <mxCell id="396" value="Cat-&lt;br&gt;egory" style="rounded=0;whiteSpace=wrap;html=1;fontSize=8;" vertex="1" parent="1">
                    <mxGeometry x="600.5" y="865" width="32" height="40" as="geometry"/>
                </mxCell>
                <mxCell id="397" value="Cat-&lt;br&gt;egory" style="rounded=0;whiteSpace=wrap;html=1;fontSize=8;" vertex="1" parent="1">
                    <mxGeometry x="564.5" y="865" width="32" height="40" as="geometry"/>
                </mxCell>
                <mxCell id="398" value="Cat-&lt;br&gt;egory" style="rounded=0;whiteSpace=wrap;html=1;fontSize=8;" vertex="1" parent="1">
                    <mxGeometry x="527.5" y="910" width="32" height="40" as="geometry"/>
                </mxCell>
                <mxCell id="399" value="Cat-&lt;br&gt;egory" style="rounded=0;whiteSpace=wrap;html=1;fontSize=8;" vertex="1" parent="1">
                    <mxGeometry x="600.5" y="910" width="32" height="40" as="geometry"/>
                </mxCell>
                <mxCell id="400" value="Cat-&lt;br&gt;egory" style="rounded=0;whiteSpace=wrap;html=1;fontSize=8;" vertex="1" parent="1">
                    <mxGeometry x="564.5" y="910" width="32" height="40" as="geometry"/>
                </mxCell>
                <mxCell id="404" value="" style="rounded=0;whiteSpace=wrap;html=1;fontSize=8;" vertex="1" parent="1">
                    <mxGeometry x="527.5" y="960" width="32" height="20" as="geometry"/>
                </mxCell>
                <mxCell id="405" value="" style="rounded=0;whiteSpace=wrap;html=1;fontSize=8;" vertex="1" parent="1">
                    <mxGeometry x="600.5" y="960" width="32" height="20" as="geometry"/>
                </mxCell>
                <mxCell id="406" value="" style="rounded=0;whiteSpace=wrap;html=1;fontSize=8;" vertex="1" parent="1">
                    <mxGeometry x="564.5" y="960" width="32" height="20" as="geometry"/>
                </mxCell>
                <mxCell id="407" value="League" style="rounded=0;whiteSpace=wrap;html=1;fontSize=8;" vertex="1" parent="1">
                    <mxGeometry x="207.5" y="865" width="32" height="40" as="geometry"/>
                </mxCell>
                <mxCell id="408" value="League" style="rounded=0;whiteSpace=wrap;html=1;fontSize=8;" vertex="1" parent="1">
                    <mxGeometry x="280.5" y="865" width="32" height="40" as="geometry"/>
                </mxCell>
                <mxCell id="409" value="League" style="rounded=0;whiteSpace=wrap;html=1;fontSize=8;" vertex="1" parent="1">
                    <mxGeometry x="244.5" y="865" width="32" height="40" as="geometry"/>
                </mxCell>
                <mxCell id="410" value="League" style="rounded=0;whiteSpace=wrap;html=1;fontSize=8;" vertex="1" parent="1">
                    <mxGeometry x="207.5" y="910" width="32" height="40" as="geometry"/>
                </mxCell>
                <mxCell id="411" value="League" style="rounded=0;whiteSpace=wrap;html=1;fontSize=8;" vertex="1" parent="1">
                    <mxGeometry x="280.5" y="910" width="32" height="40" as="geometry"/>
                </mxCell>
                <mxCell id="412" value="League" style="rounded=0;whiteSpace=wrap;html=1;fontSize=8;" vertex="1" parent="1">
                    <mxGeometry x="244.5" y="910" width="32" height="40" as="geometry"/>
                </mxCell>
                <mxCell id="413" value="" style="rounded=0;whiteSpace=wrap;html=1;fontSize=8;" vertex="1" parent="1">
                    <mxGeometry x="207.5" y="960" width="32" height="20" as="geometry"/>
                </mxCell>
                <mxCell id="414" value="" style="rounded=0;whiteSpace=wrap;html=1;fontSize=8;" vertex="1" parent="1">
                    <mxGeometry x="280.5" y="960" width="32" height="20" as="geometry"/>
                </mxCell>
                <mxCell id="415" value="" style="rounded=0;whiteSpace=wrap;html=1;fontSize=8;" vertex="1" parent="1">
                    <mxGeometry x="244.5" y="960" width="32" height="20" as="geometry"/>
                </mxCell>
                <mxCell id="416" value="Save" style="rounded=0;whiteSpace=wrap;html=1;fontSize=6;" vertex="1" parent="1">
                    <mxGeometry x="689" y="463" width="25" height="12" as="geometry"/>
                </mxCell>
                <mxCell id="417" value="Save" style="rounded=0;whiteSpace=wrap;html=1;fontSize=6;" vertex="1" parent="1">
                    <mxGeometry x="529" y="699" width="25" height="12" as="geometry"/>
                </mxCell>
                <mxCell id="418" value="Save" style="rounded=0;whiteSpace=wrap;html=1;fontSize=6;" vertex="1" parent="1">
                    <mxGeometry x="369" y="692" width="25" height="12" as="geometry"/>
                </mxCell>
                <mxCell id="419" value="Save" style="rounded=0;whiteSpace=wrap;html=1;fontSize=6;" vertex="1" parent="1">
                    <mxGeometry x="209" y="736" width="25" height="12" as="geometry"/>
                </mxCell>
                <mxCell id="420" value="Role Name" style="text;html=1;strokeColor=none;fillColor=none;align=right;verticalAlign=middle;whiteSpace=wrap;rounded=0;fontSize=8;" vertex="1" parent="1">
                    <mxGeometry x="45" y="1109" width="55" height="10" as="geometry"/>
                </mxCell>
                <mxCell id="426" value="" style="rounded=0;whiteSpace=wrap;html=1;fontSize=8;" vertex="1" parent="1">
                    <mxGeometry x="104" y="1110" width="50" height="9" as="geometry"/>
                </mxCell>
                <mxCell id="432" value="Save" style="rounded=0;whiteSpace=wrap;html=1;fontSize=6;" vertex="1" parent="1">
                    <mxGeometry x="129" y="1125" width="25" height="12" as="geometry"/>
                </mxCell>
                <mxCell id="433" value="ID" style="text;html=1;strokeColor=none;fillColor=none;align=center;verticalAlign=middle;whiteSpace=wrap;rounded=0;fontSize=8;" vertex="1" parent="1">
                    <mxGeometry x="45" y="869" width="15" height="10" as="geometry"/>
                </mxCell>
                <mxCell id="434" value="Role Name" style="text;html=1;strokeColor=none;fillColor=none;align=center;verticalAlign=middle;whiteSpace=wrap;rounded=0;fontSize=8;" vertex="1" parent="1">
                    <mxGeometry x="65" y="869" width="45" height="10" as="geometry"/>
                </mxCell>
                <mxCell id="435" value="Action" style="text;html=1;strokeColor=none;fillColor=none;align=center;verticalAlign=middle;whiteSpace=wrap;rounded=0;fontSize=8;" vertex="1" parent="1">
                    <mxGeometry x="126" y="869" width="25" height="10" as="geometry"/>
                </mxCell>
                <mxCell id="436" value="" style="endArrow=none;html=1;fontSize=8;" edge="1" parent="1">
                    <mxGeometry width="50" height="50" relative="1" as="geometry">
                        <mxPoint x="45" y="882" as="sourcePoint"/>
                        <mxPoint x="156" y="882" as="targetPoint"/>
                    </mxGeometry>
                </mxCell>
                <mxCell id="437" value="1" style="text;html=1;strokeColor=none;fillColor=none;align=center;verticalAlign=middle;whiteSpace=wrap;rounded=0;fontSize=8;" vertex="1" parent="1">
                    <mxGeometry x="45" y="889" width="15" height="10" as="geometry"/>
                </mxCell>
                <mxCell id="438" value="Role Name" style="text;html=1;strokeColor=none;fillColor=none;align=center;verticalAlign=middle;whiteSpace=wrap;rounded=0;fontSize=8;" vertex="1" parent="1">
                    <mxGeometry x="65" y="889" width="45" height="10" as="geometry"/>
                </mxCell>
                <mxCell id="443" value="Edit" style="rounded=0;whiteSpace=wrap;html=1;fontSize=6;" vertex="1" parent="1">
                    <mxGeometry x="127" y="889" width="25" height="12" as="geometry"/>
                </mxCell>
                <mxCell id="444" value="2" style="text;html=1;strokeColor=none;fillColor=none;align=center;verticalAlign=middle;whiteSpace=wrap;rounded=0;fontSize=8;" vertex="1" parent="1">
                    <mxGeometry x="45" y="909" width="15" height="10" as="geometry"/>
                </mxCell>
                <mxCell id="445" value="Role Name" style="text;html=1;strokeColor=none;fillColor=none;align=center;verticalAlign=middle;whiteSpace=wrap;rounded=0;fontSize=8;" vertex="1" parent="1">
                    <mxGeometry x="65" y="909" width="45" height="10" as="geometry"/>
                </mxCell>
                <mxCell id="446" value="Edit" style="rounded=0;whiteSpace=wrap;html=1;fontSize=6;" vertex="1" parent="1">
                    <mxGeometry x="127" y="909" width="25" height="12" as="geometry"/>
                </mxCell>
                <mxCell id="447" value="3" style="text;html=1;strokeColor=none;fillColor=none;align=center;verticalAlign=middle;whiteSpace=wrap;rounded=0;fontSize=8;" vertex="1" parent="1">
                    <mxGeometry x="45" y="929" width="15" height="10" as="geometry"/>
                </mxCell>
                <mxCell id="448" value="Role Name" style="text;html=1;strokeColor=none;fillColor=none;align=center;verticalAlign=middle;whiteSpace=wrap;rounded=0;fontSize=8;" vertex="1" parent="1">
                    <mxGeometry x="65" y="929" width="45" height="10" as="geometry"/>
                </mxCell>
                <mxCell id="449" value="Edit" style="rounded=0;whiteSpace=wrap;html=1;fontSize=6;" vertex="1" parent="1">
                    <mxGeometry x="127" y="929" width="25" height="12" as="geometry"/>
                </mxCell>
                <mxCell id="450" value="4" style="text;html=1;strokeColor=none;fillColor=none;align=center;verticalAlign=middle;whiteSpace=wrap;rounded=0;fontSize=8;" vertex="1" parent="1">
                    <mxGeometry x="45" y="949" width="15" height="10" as="geometry"/>
                </mxCell>
                <mxCell id="451" value="Role Name" style="text;html=1;strokeColor=none;fillColor=none;align=center;verticalAlign=middle;whiteSpace=wrap;rounded=0;fontSize=8;" vertex="1" parent="1">
                    <mxGeometry x="65" y="949" width="45" height="10" as="geometry"/>
                </mxCell>
                <mxCell id="452" value="Edit" style="rounded=0;whiteSpace=wrap;html=1;fontSize=6;" vertex="1" parent="1">
                    <mxGeometry x="127" y="949" width="25" height="12" as="geometry"/>
                </mxCell>
                <mxCell id="453" value="Name" style="text;html=1;strokeColor=none;fillColor=none;align=right;verticalAlign=middle;whiteSpace=wrap;rounded=0;fontSize=8;" vertex="1" parent="1">
                    <mxGeometry x="205" y="1108" width="55" height="10" as="geometry"/>
                </mxCell>
                <mxCell id="454" value="Logo URL" style="text;html=1;strokeColor=none;fillColor=none;align=right;verticalAlign=middle;whiteSpace=wrap;rounded=0;fontSize=8;" vertex="1" parent="1">
                    <mxGeometry x="205" y="1123" width="55" height="10" as="geometry"/>
                </mxCell>
                <mxCell id="455" value="Country" style="text;html=1;strokeColor=none;fillColor=none;align=right;verticalAlign=middle;whiteSpace=wrap;rounded=0;fontSize=8;" vertex="1" parent="1">
                    <mxGeometry x="205" y="1139" width="55" height="10" as="geometry"/>
                </mxCell>
                <mxCell id="456" value="Website" style="text;html=1;strokeColor=none;fillColor=none;align=right;verticalAlign=middle;whiteSpace=wrap;rounded=0;fontSize=8;" vertex="1" parent="1">
                    <mxGeometry x="205" y="1154" width="55" height="10" as="geometry"/>
                </mxCell>
                <mxCell id="460" value="" style="rounded=0;whiteSpace=wrap;html=1;fontSize=8;" vertex="1" parent="1">
                    <mxGeometry x="264" y="1109" width="50" height="9" as="geometry"/>
                </mxCell>
                <mxCell id="461" value="" style="rounded=0;whiteSpace=wrap;html=1;fontSize=8;" vertex="1" parent="1">
                    <mxGeometry x="264" y="1124" width="50" height="9" as="geometry"/>
                </mxCell>
                <mxCell id="462" value="" style="rounded=0;whiteSpace=wrap;html=1;fontSize=8;" vertex="1" parent="1">
                    <mxGeometry x="264" y="1155" width="50" height="9" as="geometry"/>
                </mxCell>
                <mxCell id="466" value="" style="rounded=0;whiteSpace=wrap;html=1;fontSize=8;" vertex="1" parent="1">
                    <mxGeometry x="264" y="1140" width="50" height="9" as="geometry"/>
                </mxCell>
                <mxCell id="467" value="Save" style="rounded=0;whiteSpace=wrap;html=1;fontSize=6;" vertex="1" parent="1">
                    <mxGeometry x="289" y="1169" width="25" height="12" as="geometry"/>
                </mxCell>
                <mxCell id="468" value="Name" style="text;html=1;strokeColor=none;fillColor=none;align=right;verticalAlign=middle;whiteSpace=wrap;rounded=0;fontSize=8;" vertex="1" parent="1">
                    <mxGeometry x="365" y="1108" width="55" height="10" as="geometry"/>
                </mxCell>
                <mxCell id="469" value="Image URL" style="text;html=1;strokeColor=none;fillColor=none;align=right;verticalAlign=middle;whiteSpace=wrap;rounded=0;fontSize=8;" vertex="1" parent="1">
                    <mxGeometry x="365" y="1123" width="55" height="10" as="geometry"/>
                </mxCell>
                <mxCell id="470" value="Federation" style="text;html=1;strokeColor=none;fillColor=none;align=right;verticalAlign=middle;whiteSpace=wrap;rounded=0;fontSize=8;" vertex="1" parent="1">
                    <mxGeometry x="365" y="1139" width="55" height="10" as="geometry"/>
                </mxCell>
                <mxCell id="471" value="Website" style="text;html=1;strokeColor=none;fillColor=none;align=right;verticalAlign=middle;whiteSpace=wrap;rounded=0;fontSize=8;" vertex="1" parent="1">
                    <mxGeometry x="365" y="1154" width="55" height="10" as="geometry"/>
                </mxCell>
                <mxCell id="472" value="" style="rounded=0;whiteSpace=wrap;html=1;fontSize=8;" vertex="1" parent="1">
                    <mxGeometry x="424" y="1109" width="50" height="9" as="geometry"/>
                </mxCell>
                <mxCell id="473" value="" style="rounded=0;whiteSpace=wrap;html=1;fontSize=8;" vertex="1" parent="1">
                    <mxGeometry x="424" y="1124" width="50" height="9" as="geometry"/>
                </mxCell>
                <mxCell id="474" value="" style="rounded=0;whiteSpace=wrap;html=1;fontSize=8;" vertex="1" parent="1">
                    <mxGeometry x="424" y="1155" width="50" height="9" as="geometry"/>
                </mxCell>
                <mxCell id="475" value="" style="rounded=0;whiteSpace=wrap;html=1;fontSize=8;" vertex="1" parent="1">
                    <mxGeometry x="424" y="1140" width="50" height="9" as="geometry"/>
                </mxCell>
                <mxCell id="476" value="Save" style="rounded=0;whiteSpace=wrap;html=1;fontSize=6;" vertex="1" parent="1">
                    <mxGeometry x="449" y="1169" width="25" height="12" as="geometry"/>
                </mxCell>
                <mxCell id="477" value="Name" style="text;html=1;strokeColor=none;fillColor=none;align=right;verticalAlign=middle;whiteSpace=wrap;rounded=0;fontSize=8;" vertex="1" parent="1">
                    <mxGeometry x="525" y="1108" width="55" height="10" as="geometry"/>
                </mxCell>
                <mxCell id="478" value="Alias" style="text;html=1;strokeColor=none;fillColor=none;align=right;verticalAlign=middle;whiteSpace=wrap;rounded=0;fontSize=8;" vertex="1" parent="1">
                    <mxGeometry x="525" y="1123" width="55" height="10" as="geometry"/>
                </mxCell>
                <mxCell id="479" value="Description" style="text;html=1;strokeColor=none;fillColor=none;align=right;verticalAlign=middle;whiteSpace=wrap;rounded=0;fontSize=8;" vertex="1" parent="1">
                    <mxGeometry x="525" y="1139" width="55" height="10" as="geometry"/>
                </mxCell>
                <mxCell id="481" value="" style="rounded=0;whiteSpace=wrap;html=1;fontSize=8;" vertex="1" parent="1">
                    <mxGeometry x="584" y="1109" width="50" height="9" as="geometry"/>
                </mxCell>
                <mxCell id="482" value="" style="rounded=0;whiteSpace=wrap;html=1;fontSize=8;" vertex="1" parent="1">
                    <mxGeometry x="584" y="1124" width="50" height="9" as="geometry"/>
                </mxCell>
                <mxCell id="484" value="" style="rounded=0;whiteSpace=wrap;html=1;fontSize=8;" vertex="1" parent="1">
                    <mxGeometry x="584" y="1140" width="50" height="19" as="geometry"/>
                </mxCell>
                <mxCell id="485" value="Save" style="rounded=0;whiteSpace=wrap;html=1;fontSize=6;" vertex="1" parent="1">
                    <mxGeometry x="609" y="1164" width="25" height="12" as="geometry"/>
                </mxCell>
                <mxCell id="486" value="Contest" style="rounded=0;whiteSpace=wrap;html=1;fontSize=8;" vertex="1" parent="1">
                    <mxGeometry x="367.5" y="865" width="32" height="40" as="geometry"/>
                </mxCell>
                <mxCell id="487" value="Contest" style="rounded=0;whiteSpace=wrap;html=1;fontSize=8;" vertex="1" parent="1">
                    <mxGeometry x="440.5" y="865" width="32" height="40" as="geometry"/>
                </mxCell>
                <mxCell id="488" value="Contest" style="rounded=0;whiteSpace=wrap;html=1;fontSize=8;" vertex="1" parent="1">
                    <mxGeometry x="404.5" y="865" width="32" height="40" as="geometry"/>
                </mxCell>
                <mxCell id="489" value="Contest" style="rounded=0;whiteSpace=wrap;html=1;fontSize=8;" vertex="1" parent="1">
                    <mxGeometry x="367.5" y="910" width="32" height="40" as="geometry"/>
                </mxCell>
                <mxCell id="490" value="Contest" style="rounded=0;whiteSpace=wrap;html=1;fontSize=8;" vertex="1" parent="1">
                    <mxGeometry x="440.5" y="910" width="32" height="40" as="geometry"/>
                </mxCell>
                <mxCell id="491" value="Contest" style="rounded=0;whiteSpace=wrap;html=1;fontSize=8;" vertex="1" parent="1">
                    <mxGeometry x="404.5" y="910" width="32" height="40" as="geometry"/>
                </mxCell>
                <mxCell id="492" value="" style="rounded=0;whiteSpace=wrap;html=1;fontSize=8;" vertex="1" parent="1">
                    <mxGeometry x="367.5" y="960" width="32" height="20" as="geometry"/>
                </mxCell>
                <mxCell id="493" value="" style="rounded=0;whiteSpace=wrap;html=1;fontSize=8;" vertex="1" parent="1">
                    <mxGeometry x="440.5" y="960" width="32" height="20" as="geometry"/>
                </mxCell>
                <mxCell id="494" value="" style="rounded=0;whiteSpace=wrap;html=1;fontSize=8;" vertex="1" parent="1">
                    <mxGeometry x="404.5" y="960" width="32" height="20" as="geometry"/>
                </mxCell>
            </root>
        </mxGraphModel>
    </diagram>
</mxfile>